

<svg xmlns="http://www.w3.org/2000/svg" width="190" height="200" viewBox="0 0 220 220">
  <!-- Clock Face -->
  <circle cx="100" cy="100" r="90" fill="white" stroke="black" stroke-width="0" />

  <line x1="100" y1="10" x2="100" y2="20" stroke="black" stroke-width=".3" transform="rotate(10, 100, 100)" />
  <text x="100" y="28" font-size="16" font-weight="bold" text-anchor="middle" fill="black">0</text>

  <line x1="100" y1="10" x2="100" y2="20" stroke="black" stroke-width=".3" transform="rotate(20, 100, 100)" />
   <line x1="100" y1="10" x2="100" y2="20" stroke="black" stroke-width=".3" transform="rotate(30, 100, 100)" />
   <text x="140" y="47" font-size="12"   fill="grey">2</text>
  <line x1="100" y1="10" x2="100" y2="20" stroke="black" stroke-width=".3" transform="rotate(40, 100, 100)" />
  <line x1="100" y1="10" x2="100" y2="20" stroke="black" stroke-width=".3" transform="rotate(50, 100, 100)" />
<line x1="100" y1="10" x2="100" y2="20" stroke="black" stroke-width=".3" transform="rotate(60, 100, 100)" />
  <text x="155" y="65" font-size="12"   fill="grey">4</text>
<line x1="100" y1="10" x2="100" y2="20" stroke="black" stroke-width=".3" transform="rotate(70, 100, 100)" />
<line x1="100" y1="10" x2="100" y2="20" stroke="black" stroke-width=".3" transform="rotate(80, 100, 100)" />
<line x1="100" y1="10" x2="100" y2="20" stroke="black" stroke-width=".3" transform="rotate(90, 100, 100)" />
  <text x="160" y="100" font-size="16" font-weight="bold"  fill="black">6</text>
  <line x1="100" y1="10" x2="100" y2="20" stroke="black" stroke-width=".3" transform="rotate(100, 100, 100)" />
<line x1="100" y1="10" x2="100" y2="20" stroke="black" stroke-width=".3" transform="rotate(110, 100, 100)" />
<line x1="100" y1="10" x2="100" y2="20" stroke="black" stroke-width=".3" transform="rotate(120, 100, 100)" />
<text x="155" y="140" font-size="12"   fill="grey">8</text>
<line x1="100" y1="10" x2="100" y2="20" stroke="black" stroke-width=".3" transform="rotate(130, 100, 100)" />
<line x1="100" y1="10" x2="100" y2="20" stroke="black" stroke-width=".3" transform="rotate(140, 100, 100)" />
<line x1="100" y1="10" x2="100" y2="20" stroke="black" stroke-width=".3" transform="rotate(150, 100, 100)" />
<text x="130" y="165" font-size="12"   fill="grey">10</text>

<line x1="100" y1="10" x2="100" y2="20" stroke="black" stroke-width=".3" transform="rotate(160, 100, 100)" />
<line x1="100" y1="10" x2="100" y2="20" stroke="black" stroke-width=".3" transform="rotate(170, 100, 100)" />
<line x1="100" y1="10" x2="100" y2="20" stroke="black" stroke-width=".3" transform="rotate(180, 100, 100)" />
<text x="100" y="170" font-size="16" text-anchor="middle"  font-weight="bold" fill="black">12</text>

<line x1="100" y1="10" x2="100" y2="20" stroke="black" stroke-width=".3" transform="rotate(190, 100, 100)" />
<line x1="100" y1="10" x2="100" y2="20" stroke="black" stroke-width=".3" transform="rotate(200, 100, 100)" />
<line x1="100" y1="10" x2="100" y2="20" stroke="black" stroke-width=".3" transform="rotate(210, 100, 100)" />
<text x="55" y="165" font-size="12"   fill="grey">14</text>


<line x1="100" y1="10" x2="100" y2="20" stroke="black" stroke-width=".3" transform="rotate(230, 100, 100)" />
<line x1="100" y1="10" x2="100" y2="20" stroke="black" stroke-width=".3" transform="rotate(240, 100, 100)" />
<text x="35" y="143" font-size="12"   fill="grey">16</text>

<line x1="100" y1="10" x2="100" y2="20" stroke="black" stroke-width=".3" transform="rotate(250, 100, 100)" />
<line x1="100" y1="10" x2="100" y2="20" stroke="black" stroke-width=".3" transform="rotate(263, 100, 100)" />

<text x="20" y="105" font-size="16"   font-weight="bold" fill="black">18</text>

<line x1="100" y1="10" x2="100" y2="20" stroke="black" stroke-width=".3" transform="rotate(280, 100, 100)" />
<line x1="100" y1="10" x2="100" y2="20" stroke="black" stroke-width=".3" transform="rotate(290, 100, 100)" />
<line x1="100" y1="10" x2="100" y2="20" stroke="black" stroke-width=".3" transform="rotate(300, 100, 100)" />
<text x="36" y="63" font-size="12"   fill="grey">20</text>
<line x1="100" y1="10" x2="100" y2="20" stroke="black" stroke-width=".3" transform="rotate(310, 100, 100)" />
<line x1="100" y1="10" x2="100" y2="20" stroke="black" stroke-width=".3" transform="rotate(320, 100, 100)" />
<line x1="100" y1="10" x2="100" y2="20" stroke="black" stroke-width=".3" transform="rotate(330, 100, 100)" />
<text x="50" y="43" font-size="12"   fill="grey">22</text>

<line x1="100" y1="10" x2="100" y2="20" stroke="black" stroke-width=".3" transform="rotate(340, 100, 100)" />
<line x1="100" y1="10" x2="100" y2="20" stroke="black" stroke-width=".3" transform="rotate(350, 100, 100)" />
</svg>